<svg width="48" height="48" viewBox="0 0 48 48" fill="none" xmlns="http://www.w3.org/2000/svg">
<rect width="48" height="48" rx="24" fill="white"/>
<path fill-rule="evenodd" clip-rule="evenodd" d="M18 16C18 17.1046 17.1046 18 16 18C14.8954 18 14 17.1046 14 16C14 14.8954 14.8954 14 16 14C17.1046 14 18 14.8954 18 16ZM18 20.5V34H14V20.5H18ZM21 20.5H25V21.3414C25.6256 21.1203 26.2987 21 27 21C30.3137 21 33 23.6863 33 27V34H29V27C29 25.8954 28.1046 25 27 25C25.8954 25 25 25.8954 25 27V34H21V27V20.5Z" fill="#3E54EB"/>
</svg>
