<svg width="124" height="50" viewBox="0 0 124 50" fill="none" xmlns="http://www.w3.org/2000/svg">
<path fill-rule="evenodd" clip-rule="evenodd" d="M28.3693 26.0376C28.3983 25.9058 28.4274 25.7729 28.4351 25.643C28.4994 25.2567 28.4762 24.8936 28.4351 24.5433C28.3238 23.8523 27.9672 23.2676 27.423 22.8635C26.8784 22.4544 26.2175 22.1907 25.5566 22.027C24.8953 21.8573 24.2339 21.7757 23.6141 21.7406C22.8825 21.6936 22.1979 21.699 21.5716 21.7406V34.0513C22.7826 33.0798 23.9356 32.0732 24.9769 31.026C25.6502 30.3413 26.2996 29.6627 26.867 28.9548C27.1421 28.5977 27.4057 28.241 27.6337 27.8838C27.8737 27.492 28.0082 27.2576 28.1779 26.7837C28.2303 26.5967 28.2773 26.4097 28.3298 26.2282C28.3412 26.1652 28.3552 26.1015 28.3693 26.0376ZM9.47754 35.8356H19.2373C19.5297 35.6253 19.822 35.4087 20.1089 35.1861V34.7359H9.47754V35.8356ZM9.47754 37.8365H16.2357C16.8149 37.4853 17.3882 37.1168 17.9502 36.7369H9.47754V37.8365ZM9.47754 39.8379H12.684C13.3745 39.4981 14.0591 39.1241 14.7378 38.7378H9.47754V39.8379ZM9.47754 41.2245C9.62989 41.172 9.77584 41.1132 9.92818 41.0548C10.1913 40.9554 10.4545 40.85 10.7182 40.7387H9.47754V41.2245ZM5.72699 42.243C6.18355 42.1663 6.65699 42.0788 7.12542 41.962C7.48847 41.874 7.85108 41.7745 8.21367 41.6578V29.0018C7.73978 29.5865 7.22484 30.277 6.68071 31.0437C5.94364 32.0791 5.18879 33.2965 4.45172 34.6593C3.72605 36.0171 3.02365 37.5674 2.67838 39.2058C2.51464 40.0017 2.47951 40.8733 2.76047 41.4471C2.90096 41.7276 3.08841 41.9209 3.36893 42.0669C3.64989 42.2015 4.01842 42.2895 4.428 42.3127C4.84944 42.336 5.2645 42.3068 5.72699 42.243ZM14.9887 16.3284H8.89464V17.1001H14.9887V16.3284ZM14.9887 14.9473H8.89464V15.719H14.9887V14.9473ZM14.9887 13.5658H8.89464V14.3375H14.9887V13.5658ZM14.9887 12.1847H8.89464V12.9564H14.9887V12.1847ZM14.9887 10.8031H8.89464V11.5749H14.9887V10.8031ZM14.9887 9.42159H8.89464V10.1938H14.9887V9.42159ZM14.9887 8.04005H8.89464V8.81223H14.9887V8.04005ZM14.9887 6.65896H8.89464V7.43068H14.9887V6.65896ZM20.1089 19.8327V18.733H9.47754V19.8327H20.1089ZM20.1089 33.8347V32.7345H9.47754V33.8347H20.1089ZM20.1089 31.8337V30.7336H9.47754V31.8337H20.1089ZM20.1089 29.8323V28.7322H9.47754V29.8323H20.1089ZM20.1089 26.7313H17.9483H9.47754V27.8373H20.1089V26.7313ZM20.1089 25.8359V24.7358H9.47754V25.8359H20.1089ZM20.1089 23.835V22.7349H9.47754V23.835H20.1089ZM9.47754 21.8336H20.1089V20.7339H9.47754V21.8336ZM29.0787 22.9342C29.3597 23.3319 29.5704 23.7999 29.6876 24.2852C29.7866 24.7709 29.8395 25.2804 29.7984 25.7657C29.7943 25.9404 29.7706 26.1065 29.7468 26.274C29.7363 26.3479 29.7257 26.422 29.7168 26.4973C29.709 26.578 29.6911 26.6563 29.6731 26.7355C29.6637 26.7767 29.6542 26.8182 29.6461 26.8603L29.6055 27.0355L29.5882 27.1294L29.5763 27.17L29.5704 27.1938C29.5668 27.2077 29.5718 27.1964 29.5701 27.2039C29.5689 27.209 29.5648 27.2224 29.553 27.2576C29.4532 27.6439 29.2018 28.2464 28.9679 28.6565C28.7339 29.1007 28.4584 29.5167 28.1779 29.9322C27.6046 30.745 26.9783 31.529 26.2818 32.2725C24.8661 33.8109 23.2802 35.2677 21.5716 36.6196C21.0978 37 20.6065 37.3745 20.1089 37.7312C20.0624 37.7722 20.0095 37.8078 19.963 37.8365C19.5415 38.1471 19.1087 38.4454 18.6754 38.7378C18.1139 39.1182 17.5461 39.4867 16.9732 39.8379C16.8926 39.8906 16.8106 39.942 16.7285 39.9927C16.6377 40.0488 16.5469 40.1042 16.4578 40.1595C16.1189 40.3583 15.7732 40.5517 15.4279 40.7387C14.72 41.125 14.0008 41.4936 13.2692 41.8388C12.5845 42.1609 11.8885 42.4651 11.1861 42.7342C11.1447 42.7493 11.104 42.7654 11.0635 42.7814C10.9955 42.8082 10.9279 42.8349 10.8582 42.8569C10.7825 42.8861 10.7063 42.9157 10.6301 42.9445C9.61803 43.313 8.58814 43.6058 7.54093 43.8165C7.02005 43.9278 6.4937 44.004 5.96097 44.0742C5.4287 44.1326 4.84351 44.1563 4.28159 44.0975C3.70873 44.0505 3.09981 43.91 2.52649 43.5766C1.95317 43.2551 1.47335 42.6991 1.23937 42.102C1.00493 41.5054 0.952472 40.9203 0.975726 40.3821C0.998996 39.8434 1.09294 39.3403 1.21564 38.8669C1.45555 37.9186 1.81862 37.0703 2.21041 36.2803C2.60266 35.4908 3.02957 34.7592 3.46242 34.0805C4.32263 32.7167 5.24123 31.5642 6.07819 30.5753C6.84444 29.6745 7.58152 28.937 8.21367 28.3345V18.6098V5.8252H15.8202V17.9138H21.5716V21.2197C22.186 21.1139 22.8711 21.0382 23.6196 21.0149C24.2809 20.9971 24.9888 21.0149 25.7377 21.1321C26.4866 21.2548 27.2944 21.4655 28.0552 21.9627C28.4237 22.214 28.7977 22.5241 29.0787 22.9342ZM101.435 15.2234L107.456 30.7446C107.703 31.3697 107.982 31.7892 108.295 32.0031C108.608 32.2005 108.895 32.3074 109.159 32.3238V32.8174C108.83 32.7845 108.427 32.768 107.95 32.768C107.472 32.7516 106.995 32.7433 106.518 32.7433C105.877 32.7433 105.276 32.7516 104.717 32.768C104.158 32.768 103.705 32.7845 103.36 32.8174V32.3238C104.199 32.2909 104.733 32.1511 104.964 31.9043C105.194 31.6411 105.145 31.09 104.816 30.2511L103.301 26.2042H97.334L96.3271 28.8199C96.0639 29.4779 95.9076 30.0372 95.8583 30.4978C95.8089 30.942 95.8501 31.2957 95.9817 31.5589C96.1297 31.8221 96.3683 32.0113 96.6973 32.1264C97.0427 32.2416 97.4705 32.3074 97.9804 32.3238V32.8174C97.5198 32.7845 97.0345 32.768 96.5246 32.768C96.031 32.7516 95.5704 32.7433 95.1427 32.7433C94.7314 32.7433 94.3777 32.7516 94.0816 32.768C93.802 32.768 93.5388 32.7845 93.292 32.8174V32.3238C93.621 32.2416 93.9583 32.0524 94.3037 31.7563C94.6492 31.4437 94.9617 30.9173 95.2414 30.177L101.04 15.2234H101.238H101.435ZM100.36 18.3445L103.116 25.7107H97.524L100.36 18.3445ZM36.024 15.3961C35.4646 15.3797 35.0123 15.3632 34.6668 15.3468V15.8403C35.2261 15.8568 35.6456 15.9226 35.9253 16.0377C36.2214 16.1364 36.4188 16.3338 36.5175 16.6299C36.6162 16.9096 36.6655 17.3538 36.6655 17.9624V30.2017C36.6655 30.7939 36.6162 31.2381 36.5175 31.5342C36.4188 31.8303 36.2214 32.0277 35.9253 32.1264C35.6456 32.2251 35.2261 32.2909 34.6668 32.3238V32.8174C35.0123 32.7845 35.4646 32.768 36.024 32.768C36.5833 32.7516 37.1508 32.7433 37.7266 32.7433C38.7466 32.7433 39.6184 32.7598 40.3423 32.7927C41.0661 32.8091 41.609 32.8174 41.9709 32.8174C43.2047 32.8174 44.2657 32.6117 45.1541 32.2005C46.0424 31.7892 46.7169 31.2299 47.1775 30.5225C47.6546 29.7987 47.8931 28.9679 47.8931 28.0302C47.8931 27.3558 47.745 26.7142 47.4489 26.1055C47.1528 25.4968 46.6346 24.9704 45.8944 24.5262C45.1705 24.0656 44.1588 23.7531 42.8592 23.5886V23.5392C43.7804 23.2595 44.5125 22.8976 45.0554 22.4535C45.6147 21.9928 46.0095 21.4911 46.2398 20.9482C46.4866 20.3889 46.61 19.8214 46.61 19.2456C46.61 18.1105 46.174 17.181 45.3021 16.4572C44.4302 15.7334 43.1306 15.3715 41.4033 15.3715C41.1072 15.3715 40.6055 15.3797 39.8981 15.3961C39.1907 15.4126 38.4504 15.4208 37.6773 15.4208C37.1344 15.4208 36.5833 15.4126 36.024 15.3961ZM39.3059 16.2598C39.5362 15.9801 40.0297 15.8403 40.7864 15.8403C42.0202 15.8403 42.9003 16.1529 43.4268 16.778C43.9696 17.3867 44.2411 18.2997 44.2411 19.517C44.2411 20.2244 44.1424 20.8907 43.945 21.5158C43.7475 22.1245 43.3856 22.618 42.8592 22.9963C42.3328 23.3582 41.5843 23.5392 40.6137 23.5392H38.9604V17.9624C38.9604 17.107 39.0756 16.5395 39.3059 16.2598ZM38.9604 23.9587V30.2017C38.9604 30.7775 39.0098 31.2134 39.1085 31.5095C39.2072 31.8056 39.3881 32.0031 39.6513 32.1018C39.9146 32.2005 40.3011 32.2498 40.8111 32.2498C42.4233 32.2498 43.5913 31.8797 44.3151 31.1394C45.0554 30.3827 45.4255 29.3134 45.4255 27.9315C45.4255 26.6648 45.08 25.686 44.3891 24.9951C43.7146 24.3042 42.596 23.9587 41.0332 23.9587H38.9604ZM56.1647 15.8403V15.3468C55.7864 15.3632 55.3093 15.3797 54.7335 15.3961C54.1742 15.4126 53.6067 15.4208 53.0309 15.4208C52.3893 15.4208 51.7889 15.4126 51.2296 15.3961C50.6702 15.3797 50.2178 15.3632 49.8724 15.3468V15.8403C50.4317 15.8568 50.8512 15.9226 51.1308 16.0377C51.427 16.1364 51.6244 16.3338 51.7231 16.6299C51.8218 16.9096 51.8711 17.3538 51.8711 17.9624V30.2017C51.8711 30.7939 51.8218 31.2381 51.7231 31.5342C51.6244 31.8303 51.427 32.0277 51.1308 32.1264C50.8512 32.2251 50.4317 32.2909 49.8724 32.3238V32.8174C50.2178 32.7845 50.6702 32.768 51.2296 32.768C51.7889 32.7516 52.3893 32.7433 53.0309 32.7433C53.6067 32.7433 54.1742 32.7516 54.7335 32.768C55.3093 32.768 55.7864 32.7845 56.1647 32.8174V32.3238C55.6054 32.2909 55.1777 32.2251 54.8816 32.1264C54.6019 32.0277 54.4128 31.8303 54.314 31.5342C54.2154 31.2381 54.166 30.7939 54.166 30.2017V17.9624C54.166 17.3538 54.2154 16.9096 54.314 16.6299C54.4128 16.3338 54.6019 16.1364 54.8816 16.0377C55.1777 15.9226 55.6054 15.8568 56.1647 15.8403ZM71.806 15.3468C71.7402 15.9719 71.6908 16.5806 71.6579 17.1728C71.6415 17.7486 71.6333 18.1928 71.6333 18.5053C71.6333 18.9001 71.6415 19.2703 71.6579 19.6157C71.6744 19.9612 71.6908 20.2655 71.7073 20.5287H71.1398C71.0246 19.3772 70.8683 18.4724 70.6709 17.8144C70.4735 17.1399 70.128 16.6546 69.6345 16.3585C69.141 16.0624 68.3761 15.9143 67.3397 15.9143H66.0072V29.955C66.0072 30.613 66.0647 31.1065 66.1799 31.4355C66.3115 31.7645 66.5583 31.9866 66.9202 32.1018C67.2821 32.2169 67.8085 32.2909 68.4994 32.3238V32.8174C68.0717 32.7845 67.5288 32.768 66.8708 32.768C66.2128 32.7516 65.5465 32.7433 64.8721 32.7433C64.1318 32.7433 63.4326 32.7516 62.7746 32.768C62.133 32.768 61.6149 32.7845 61.22 32.8174V32.3238C61.911 32.2909 62.4374 32.2169 62.7993 32.1018C63.1612 31.9866 63.3997 31.7645 63.5149 31.4355C63.6465 31.1065 63.7123 30.613 63.7123 29.955V15.9143H62.3798C61.3599 15.9143 60.5949 16.0624 60.0849 16.3585C59.5914 16.6546 59.246 17.1399 59.0486 17.8144C58.8511 18.4724 58.6949 19.3772 58.5797 20.5287H58.0122C58.0451 20.2655 58.0615 19.9612 58.0615 19.6157C58.078 19.2703 58.0862 18.9001 58.0862 18.5053C58.0862 18.1928 58.0697 17.7486 58.0368 17.1728C58.0204 16.5806 57.9793 15.9719 57.9135 15.3468C58.6044 15.3632 59.3529 15.3797 60.159 15.3961C60.9815 15.4126 61.804 15.4208 62.6266 15.4208H64.8721H67.0929C67.9154 15.4208 68.738 15.4126 69.5605 15.3961C70.383 15.3797 71.1315 15.3632 71.806 15.3468ZM94.905 15.8403V15.3468C94.6582 15.3632 94.395 15.3797 94.1154 15.3961C93.8357 15.4126 93.482 15.4208 93.0543 15.4208C92.6266 15.4208 92.166 15.4126 91.6724 15.3961C91.1789 15.3797 90.6936 15.3632 90.2166 15.3468V15.8403C90.9075 15.8568 91.4257 15.9719 91.7712 16.1858C92.1166 16.3832 92.2976 16.7369 92.314 17.2468C92.3469 17.7404 92.2153 18.4395 91.9192 19.3443L88.8808 28.8968L85.3307 17.9131C85.1333 17.2715 85.0511 16.8109 85.084 16.5312C85.1333 16.2516 85.2978 16.0706 85.5775 15.9884C85.8736 15.9061 86.2684 15.8568 86.7619 15.8403V15.3468C86.4165 15.3632 85.9641 15.3797 85.4048 15.3961C84.8454 15.4126 84.245 15.4208 83.6034 15.4208C83.1922 15.4208 82.7645 15.4126 82.3203 15.3961C81.8761 15.3797 81.506 15.3632 81.2099 15.3468V15.8403C81.4402 15.8568 81.6869 15.9637 81.9501 16.1611C82.2133 16.3585 82.4519 16.778 82.6657 17.4196L83.3211 19.364L80.327 28.9237L76.7188 17.9131C76.5543 17.4031 76.4639 17.0083 76.4474 16.7286C76.4474 16.4325 76.5379 16.2187 76.7188 16.0871C76.9162 15.9555 77.2288 15.8732 77.6565 15.8403V15.3468C77.3604 15.3632 76.9738 15.3797 76.4967 15.3961C76.0361 15.4126 75.5344 15.4208 74.9915 15.4208C74.5309 15.4208 74.0538 15.4126 73.5603 15.3961C73.0832 15.3797 72.6802 15.3632 72.3512 15.3468V15.8403C72.6144 15.8568 72.9105 15.9637 73.2395 16.1611C73.5685 16.3585 73.84 16.778 74.0538 17.4196L79.2851 32.9407H79.3838H79.4825H79.5813H79.6799L83.6101 20.2214L87.897 32.9407H87.9957H88.0944H88.1931H88.2919L92.9556 17.9871C93.1859 17.2304 93.4902 16.704 93.8686 16.4079C94.247 16.0953 94.5924 15.9061 94.905 15.8403ZM122.288 15.8403V15.3468C122.041 15.3632 121.778 15.3797 121.499 15.3961C121.219 15.4126 120.865 15.4208 120.437 15.4208C120.01 15.4208 119.549 15.4126 119.056 15.3961L118.39 15.3738L117.6 15.3468V15.8403C118.291 15.8568 118.825 15.9637 119.204 16.1611C119.582 16.3421 119.771 16.6793 119.771 17.1728C119.788 17.6663 119.566 18.3655 119.105 19.2703L115.958 25.541L111.85 17.6663C111.603 17.1893 111.529 16.8191 111.628 16.5559C111.727 16.2927 111.932 16.1118 112.245 16.013C112.558 15.9143 112.92 15.865 113.331 15.865V15.3468C112.804 15.3797 112.229 15.4044 111.603 15.4208H109.876C109.465 15.4208 109.078 15.4126 108.716 15.3961C108.371 15.3797 108.034 15.3632 107.705 15.3468V15.865C107.886 15.865 108.083 15.9472 108.297 16.1118C108.527 16.2598 108.807 16.6382 109.136 17.2468L114.145 26.4946V30.2017C114.145 30.7939 114.096 31.2381 113.997 31.5342C113.898 31.8303 113.701 32.0277 113.405 32.1264C113.125 32.2251 112.706 32.2909 112.146 32.3238V32.8174C112.492 32.7845 112.944 32.768 113.504 32.768C114.063 32.7516 114.663 32.7433 115.305 32.7433C115.881 32.7433 116.448 32.7516 117.007 32.768C117.583 32.768 118.06 32.7845 118.439 32.8174V32.3238C117.879 32.2909 117.452 32.2251 117.156 32.1264C116.876 32.0277 116.687 31.8303 116.588 31.5342C116.489 31.2381 116.44 30.7939 116.44 30.2017V25.708L120.314 18.0365C120.692 17.3126 121.038 16.7862 121.35 16.4572C121.663 16.1118 121.976 15.9061 122.288 15.8403Z" fill="white"/>
</svg>
