<svg width="104" height="201" viewBox="0 0 104 201" fill="none" xmlns="http://www.w3.org/2000/svg">
<path d="M103.155 62.726C103.155 60.4735 101.249 58.5674 98.996 58.5674C96.7434 58.5674 94.8374 60.4735 94.8374 62.726C94.8374 64.9786 96.7434 66.8846 98.996 66.8846C101.249 66.8846 103.155 64.9786 103.155 62.726Z" fill="#3E54EB" fill-opacity="0.2"/>
<path d="M103.155 43.4926C103.155 41.24 101.249 39.334 98.996 39.334C96.7434 39.334 94.8374 41.24 94.8374 43.4926C94.8374 45.7452 96.7434 47.6512 98.996 47.6512C101.249 47.8245 103.155 45.9184 103.155 43.4926Z" fill="#3E54EB" fill-opacity="0.2"/>
<path d="M103.155 24.432C103.155 22.1795 101.249 20.2734 98.996 20.2734C96.7434 20.2734 94.8374 22.1795 94.8374 24.432C94.8374 26.6846 96.7434 28.5906 98.996 28.5906C101.249 28.5906 103.155 26.6846 103.155 24.432Z" fill="#3E54EB" fill-opacity="0.2"/>
<path d="M83.228 62.726C83.228 60.4735 81.322 58.5674 79.0694 58.5674C76.8168 58.5674 74.9108 60.4735 74.9108 62.726C74.9108 64.9786 76.8168 66.8846 79.0694 66.8846C81.322 66.8846 83.228 64.9786 83.228 62.726Z" fill="#3E54EB" fill-opacity="0.2"/>
<path d="M83.228 43.4926C83.228 41.24 81.322 39.334 79.0694 39.334C76.8168 39.334 74.9108 41.24 74.9108 43.4926C74.9108 45.7452 76.8168 47.6512 79.0694 47.6512C81.322 47.6512 83.228 45.9184 83.228 43.4926Z" fill="#3E54EB" fill-opacity="0.2"/>
<path d="M83.228 24.432C83.228 22.1795 81.322 20.2734 79.0694 20.2734C76.8168 20.2734 74.9108 22.1795 74.9108 24.432C74.9108 26.6846 76.8168 28.5906 79.0694 28.5906C81.322 28.5906 83.228 26.6846 83.228 24.432Z" fill="#3E54EB" fill-opacity="0.2"/>
<path d="M59.1425 66.8846C61.4392 66.8846 63.3011 65.0228 63.3011 62.726C63.3011 60.4293 61.4392 58.5674 59.1425 58.5674C56.8458 58.5674 54.9839 60.4293 54.9839 62.726C54.9839 65.0228 56.8458 66.8846 59.1425 66.8846Z" fill="#3E54EB" fill-opacity="0.2"/>
<path d="M59.1425 47.6512C61.4392 47.6512 63.3011 45.7893 63.3011 43.4926C63.3011 41.1958 61.4392 39.334 59.1425 39.334C56.8458 39.334 54.9839 41.1958 54.9839 43.4926C54.9839 45.7893 56.8458 47.6512 59.1425 47.6512Z" fill="#3E54EB" fill-opacity="0.2"/>
<path d="M59.1425 28.5906C61.4392 28.5906 63.3011 26.7288 63.3011 24.432C63.3011 22.1353 61.4392 20.2734 59.1425 20.2734C56.8458 20.2734 54.9839 22.1353 54.9839 24.432C54.9839 26.7288 56.8458 28.5906 59.1425 28.5906Z" fill="#3E54EB" fill-opacity="0.2"/>
<path d="M43.548 62.726C43.548 60.4735 41.642 58.5674 39.3894 58.5674C37.1369 58.5674 35.2308 60.4735 35.2308 62.726C35.2308 64.9786 37.1369 66.8846 39.3894 66.8846C41.642 66.8846 43.548 64.9786 43.548 62.726Z" fill="#3E54EB" fill-opacity="0.2"/>
<path d="M43.548 43.4926C43.548 41.24 41.642 39.334 39.3894 39.334C37.1369 39.334 35.2308 41.24 35.2308 43.4926C35.2308 45.7452 37.1369 47.6512 39.3894 47.6512C41.642 47.6512 43.548 45.9184 43.548 43.4926Z" fill="#3E54EB" fill-opacity="0.2"/>
<path d="M43.548 24.432C43.548 22.1795 41.642 20.2734 39.3894 20.2734C37.1369 20.2734 35.2308 22.1795 35.2308 24.432C35.2308 26.6846 37.1369 28.5906 39.3894 28.5906C41.642 28.5906 43.548 26.6846 43.548 24.432Z" fill="#3E54EB" fill-opacity="0.2"/>
<path d="M23.6212 62.726C23.6212 60.4735 21.7151 58.5674 19.4626 58.5674C17.21 58.5674 15.304 60.4735 15.304 62.726C15.304 64.9786 17.21 66.8846 19.4626 66.8846C21.7151 66.8846 23.6212 64.9786 23.6212 62.726Z" fill="#3E54EB" fill-opacity="0.2"/>
<path d="M23.6212 43.4926C23.6212 41.24 21.7151 39.334 19.4626 39.334C17.21 39.334 15.304 41.24 15.304 43.4926C15.304 45.7452 17.21 47.6512 19.4626 47.6512C21.7151 47.8245 23.6212 45.9184 23.6212 43.4926Z" fill="#3E54EB" fill-opacity="0.2"/>
<path d="M23.6215 24.432C23.6215 22.1795 21.7155 20.2734 19.4629 20.2734C17.2103 20.2734 15.3043 22.1795 15.3043 24.432C15.3043 26.6846 17.2103 28.5906 19.4629 28.5906C21.7155 28.5906 23.6215 26.6846 23.6215 24.432Z" fill="#3E54EB" fill-opacity="0.2"/>
<path d="M94.6638 196.841C94.6638 199.094 96.5699 201 98.8225 201C101.075 201 102.981 199.094 102.981 196.841C102.981 194.589 101.075 192.683 98.8225 192.683C96.5699 192.683 94.6638 194.415 94.6638 196.841Z" fill="#3E54EB" fill-opacity="0.2"/>
<path d="M103.155 177.608C103.155 175.355 101.249 173.449 98.996 173.449C96.7434 173.449 94.8374 175.355 94.8374 177.608C94.8374 179.86 96.7434 181.766 98.996 181.766C101.249 181.766 103.155 180.034 103.155 177.608Z" fill="#3E54EB" fill-opacity="0.2"/>
<path d="M103.155 158.547C103.155 156.295 101.249 154.389 98.996 154.389C96.7434 154.389 94.8374 156.295 94.8374 158.547C94.8374 160.8 96.7434 162.706 98.996 162.706C101.249 162.706 103.155 160.8 103.155 158.547Z" fill="#3E54EB" fill-opacity="0.2"/>
<path d="M103.155 139.313C103.155 137.061 101.249 135.155 98.996 135.155C96.7434 135.155 94.8374 137.061 94.8374 139.313C94.8374 141.566 96.7434 143.472 98.996 143.472C101.249 143.472 103.155 141.739 103.155 139.313Z" fill="#3E54EB" fill-opacity="0.2"/>
<path d="M103.155 120.253C103.155 118.001 101.249 116.095 98.996 116.095C96.7434 116.095 94.8374 118.001 94.8374 120.253C94.8374 122.506 96.7434 124.412 98.996 124.412C101.249 124.412 103.155 122.506 103.155 120.253Z" fill="#3E54EB" fill-opacity="0.2"/>
<path d="M103.155 101.02C103.155 98.7678 101.249 96.8618 98.996 96.8618C96.7434 96.8618 94.8374 98.7678 94.8374 101.02C94.8374 103.273 96.7434 105.179 98.996 105.179C101.249 105.179 103.155 103.273 103.155 101.02Z" fill="#3E54EB" fill-opacity="0.2"/>
<path d="M103.155 81.7866C103.155 79.534 101.249 77.6279 98.996 77.6279C96.7434 77.6279 94.8374 79.534 94.8374 81.7866C94.8374 84.0392 96.7434 85.9452 98.996 85.9452C101.249 86.1185 103.155 84.2124 103.155 81.7866Z" fill="#3E54EB" fill-opacity="0.2"/>
<path d="M83.228 196.841C83.228 194.589 81.322 192.683 79.0694 192.683C76.8168 192.683 74.9108 194.589 74.9108 196.841C74.9108 199.094 76.8168 201 79.0694 201C81.322 201 83.228 199.094 83.228 196.841Z" fill="#3E54EB" fill-opacity="0.2"/>
<path d="M83.228 177.608C83.228 175.355 81.322 173.449 79.0694 173.449C76.8168 173.449 74.9108 175.355 74.9108 177.608C74.9108 179.86 76.8168 181.766 79.0694 181.766C81.322 181.766 83.228 180.034 83.228 177.608Z" fill="#3E54EB" fill-opacity="0.2"/>
<path d="M83.228 158.547C83.228 156.295 81.322 154.389 79.0694 154.389C76.8168 154.389 74.9108 156.295 74.9108 158.547C74.9108 160.8 76.8168 162.706 79.0694 162.706C81.322 162.706 83.228 160.8 83.228 158.547Z" fill="#3E54EB" fill-opacity="0.2"/>
<path d="M83.228 139.313C83.228 137.061 81.322 135.155 79.0694 135.155C76.8168 135.155 74.9108 137.061 74.9108 139.313C74.9108 141.566 76.8168 143.472 79.0694 143.472C81.322 143.472 83.228 141.739 83.228 139.313Z" fill="#3E54EB" fill-opacity="0.2"/>
<path d="M83.228 120.253C83.228 118.001 81.322 116.095 79.0694 116.095C76.8168 116.095 74.9108 118.001 74.9108 120.253C74.9108 122.506 76.8168 124.412 79.0694 124.412C81.322 124.412 83.228 122.506 83.228 120.253Z" fill="#3E54EB" fill-opacity="0.2"/>
<path d="M83.228 101.02C83.228 98.7678 81.322 96.8618 79.0694 96.8618C76.8168 96.8618 74.9108 98.7678 74.9108 101.02C74.9108 103.273 76.8168 105.179 79.0694 105.179C81.322 105.179 83.228 103.273 83.228 101.02Z" fill="#3E54EB" fill-opacity="0.2"/>
<path d="M83.228 81.7866C83.228 79.534 81.322 77.6279 79.0694 77.6279C76.8168 77.6279 74.9108 79.534 74.9108 81.7866C74.9108 84.0392 76.8168 85.9452 79.0694 85.9452C81.322 85.9452 83.228 84.2124 83.228 81.7866Z" fill="#3E54EB" fill-opacity="0.2"/>
<path d="M63.3011 196.841C63.3011 194.589 61.3951 192.683 59.1425 192.683C56.8899 192.683 54.9839 194.589 54.9839 196.841C54.9839 199.094 56.8899 201 59.1425 201C61.3951 201 63.3011 199.094 63.3011 196.841Z" fill="#3E54EB" fill-opacity="0.2"/>
<path d="M63.3011 177.608C63.3011 175.355 61.3951 173.449 59.1425 173.449C56.8899 173.449 54.9839 175.355 54.9839 177.608C54.9839 179.86 56.8899 181.766 59.1425 181.766C61.3951 181.766 63.3011 180.034 63.3011 177.608Z" fill="#3E54EB" fill-opacity="0.2"/>
<path d="M63.3011 158.547C63.3011 156.295 61.3951 154.389 59.1425 154.389C56.8899 154.389 54.9839 156.295 54.9839 158.547C54.9839 160.8 56.8899 162.706 59.1425 162.706C61.3951 162.706 63.3011 160.8 63.3011 158.547Z" fill="#3E54EB" fill-opacity="0.2"/>
<path d="M63.3011 139.313C63.3011 137.061 61.3951 135.155 59.1425 135.155C56.8899 135.155 54.9839 137.061 54.9839 139.313C54.9839 141.566 56.8899 143.472 59.1425 143.472C61.3951 143.472 63.3011 141.739 63.3011 139.313Z" fill="#3E54EB" fill-opacity="0.2"/>
<path d="M59.1425 124.412C61.4392 124.412 63.3011 122.55 63.3011 120.253C63.3011 117.957 61.4392 116.095 59.1425 116.095C56.8458 116.095 54.9839 117.957 54.9839 120.253C54.9839 122.55 56.8458 124.412 59.1425 124.412Z" fill="#3E54EB" fill-opacity="0.2"/>
<path d="M63.3011 101.02C63.3011 98.7678 61.3951 96.8618 59.1425 96.8618C56.8899 96.8618 54.9839 98.7678 54.9839 101.02C54.9839 103.273 56.8899 105.179 59.1425 105.179C61.3951 105.179 63.3011 103.273 63.3011 101.02Z" fill="#3E54EB" fill-opacity="0.2"/>
<path d="M63.3011 81.7866C63.3011 79.534 61.3951 77.6279 59.1425 77.6279C56.8899 77.6279 54.9839 79.534 54.9839 81.7866C54.9839 84.0392 56.8899 85.9452 59.1425 85.9452C61.3951 86.1185 63.3011 84.2124 63.3011 81.7866Z" fill="#3E54EB" fill-opacity="0.2"/>
<path d="M43.548 196.841C43.548 194.589 41.642 192.683 39.3894 192.683C37.1369 192.683 35.2308 194.589 35.2308 196.841C35.2308 199.094 37.1369 201 39.3894 201C41.642 201 43.548 199.094 43.548 196.841Z" fill="#3E54EB" fill-opacity="0.2"/>
<path d="M43.548 177.608C43.548 175.355 41.642 173.449 39.3894 173.449C37.1369 173.449 35.2308 175.355 35.2308 177.608C35.2308 179.86 37.1369 181.766 39.3894 181.766C41.642 181.766 43.548 180.034 43.548 177.608Z" fill="#3E54EB" fill-opacity="0.2"/>
<path d="M43.548 158.547C43.548 156.295 41.642 154.389 39.3894 154.389C37.1369 154.389 35.2308 156.295 35.2308 158.547C35.2308 160.8 37.1369 162.706 39.3894 162.706C41.642 162.706 43.548 160.8 43.548 158.547Z" fill="#3E54EB" fill-opacity="0.2"/>
<path d="M43.548 139.313C43.548 137.061 41.642 135.155 39.3894 135.155C37.1369 135.155 35.2308 137.061 35.2308 139.313C35.2308 141.566 37.1369 143.472 39.3894 143.472C41.642 143.472 43.548 141.739 43.548 139.313Z" fill="#3E54EB" fill-opacity="0.2"/>
<path d="M43.548 120.253C43.548 118.001 41.642 116.095 39.3894 116.095C37.1369 116.095 35.2308 118.001 35.2308 120.253C35.2308 122.506 37.1369 124.412 39.3894 124.412C41.642 124.412 43.548 122.506 43.548 120.253Z" fill="#3E54EB" fill-opacity="0.2"/>
<path d="M43.548 101.02C43.548 98.7678 41.642 96.8618 39.3894 96.8618C37.1369 96.8618 35.2308 98.7678 35.2308 101.02C35.2308 103.273 37.1369 105.179 39.3894 105.179C41.642 105.179 43.548 103.273 43.548 101.02Z" fill="#3E54EB" fill-opacity="0.2"/>
<path d="M43.548 81.7866C43.548 79.534 41.642 77.6279 39.3894 77.6279C37.1369 77.6279 35.2308 79.534 35.2308 81.7866C35.2308 84.0392 37.1369 85.9452 39.3894 85.9452C41.642 85.9452 43.548 84.2124 43.548 81.7866Z" fill="#3E54EB" fill-opacity="0.2"/>
<path d="M23.6212 196.841C23.6212 194.589 21.7151 192.683 19.4626 192.683C17.21 192.683 15.304 194.589 15.304 196.841C15.304 199.094 17.21 201 19.4626 201C21.7151 201 23.6212 199.094 23.6212 196.841Z" fill="#3E54EB" fill-opacity="0.2"/>
<path d="M23.6212 177.608C23.6212 175.355 21.7151 173.449 19.4626 173.449C17.21 173.449 15.304 175.355 15.304 177.608C15.304 179.86 17.21 181.766 19.4626 181.766C21.7151 181.766 23.6212 180.034 23.6212 177.608Z" fill="#3E54EB" fill-opacity="0.2"/>
<path d="M23.6212 158.547C23.6212 156.295 21.7151 154.389 19.4626 154.389C17.21 154.389 15.304 156.295 15.304 158.547C15.304 160.8 17.21 162.706 19.4626 162.706C21.7151 162.706 23.6212 160.8 23.6212 158.547Z" fill="#3E54EB" fill-opacity="0.2"/>
<path d="M23.6212 139.313C23.6212 137.061 21.7151 135.155 19.4626 135.155C17.21 135.155 15.304 137.061 15.304 139.313C15.304 141.566 17.21 143.472 19.4626 143.472C21.7151 143.472 23.6212 141.739 23.6212 139.313Z" fill="#3E54EB" fill-opacity="0.2"/>
<path d="M23.6212 120.253C23.6212 118.001 21.7151 116.095 19.4626 116.095C17.21 116.095 15.304 118.001 15.304 120.253C15.304 122.506 17.21 124.412 19.4626 124.412C21.7151 124.412 23.6212 122.506 23.6212 120.253Z" fill="#3E54EB" fill-opacity="0.2"/>
<path d="M23.6212 101.02C23.6212 98.7678 21.7151 96.8618 19.4626 96.8618C17.21 96.8618 15.304 98.7678 15.304 101.02C15.304 103.273 17.21 105.179 19.4626 105.179C21.7151 105.179 23.6212 103.273 23.6212 101.02Z" fill="#3E54EB" fill-opacity="0.2"/>
<path d="M23.6212 81.7866C23.6212 79.534 21.7151 77.6279 19.4626 77.6279C17.21 77.6279 15.304 79.534 15.304 81.7866C15.304 84.0392 17.21 85.9452 19.4626 85.9452C21.7151 86.1185 23.6212 84.2124 23.6212 81.7866Z" fill="#3E54EB" fill-opacity="0.2"/>
<path d="M88.5997 42.4525C88.5997 40.2 86.6937 38.2939 84.4411 38.2939C82.1885 38.2939 80.2825 40.2 80.2825 42.4525C80.2825 44.7051 82.1885 46.6112 84.4411 46.6112C86.6937 46.6112 88.5997 44.7051 88.5997 42.4525Z" fill="#3E54EB"/>
<path d="M88.5997 23.2192C88.5997 20.9666 86.6937 19.0605 84.4411 19.0605C82.1885 19.0605 80.2825 20.9666 80.2825 23.2192C80.2825 25.4717 82.1885 27.3778 84.4411 27.3778C86.6937 27.3778 88.5997 25.645 88.5997 23.2192Z" fill="#3E54EB"/>
<path d="M88.5997 4.1586C88.5997 1.90602 86.6937 0 84.4411 0C82.1885 0 80.2825 1.90602 80.2825 4.1586C80.2825 6.41119 82.1885 8.31721 84.4411 8.31721C86.6937 8.31721 88.5997 6.41119 88.5997 4.1586Z" fill="#3E54EB"/>
<path d="M68.673 42.4525C68.673 40.2 66.767 38.2939 64.5144 38.2939C62.2619 38.2939 60.3558 40.2 60.3558 42.4525C60.3558 44.7051 62.2619 46.6112 64.5144 46.6112C66.767 46.6112 68.673 44.7051 68.673 42.4525Z" fill="#3E54EB"/>
<path d="M68.673 23.2192C68.673 20.9666 66.767 19.0605 64.5144 19.0605C62.2619 19.0605 60.3558 20.9666 60.3558 23.2192C60.3558 25.4717 62.2619 27.3778 64.5144 27.3778C66.767 27.3778 68.673 25.645 68.673 23.2192Z" fill="#3E54EB"/>
<path d="M68.673 4.1586C68.673 1.90602 66.767 0 64.5144 0C62.2619 0 60.3558 1.90602 60.3558 4.1586C60.3558 6.41119 62.2619 8.31721 64.5144 8.31721C66.767 8.31721 68.673 6.41119 68.673 4.1586Z" fill="#3E54EB"/>
<path d="M48.9197 42.4525C48.9197 40.2 47.0137 38.2939 44.7611 38.2939C42.5086 38.2939 40.6025 40.2 40.6025 42.4525C40.6025 44.7051 42.5086 46.6112 44.7611 46.6112C47.0137 46.6112 48.9197 44.7051 48.9197 42.4525Z" fill="#3E54EB"/>
<path d="M48.9197 23.2192C48.9197 20.9666 47.0137 19.0605 44.7611 19.0605C42.5086 19.0605 40.6025 20.9666 40.6025 23.2192C40.6025 25.4717 42.5086 27.3778 44.7611 27.3778C47.0137 27.3778 48.9197 25.645 48.9197 23.2192Z" fill="#3E54EB"/>
<path d="M48.9197 4.1586C48.9197 1.90602 47.0137 0 44.7611 0C42.5086 0 40.6025 1.90602 40.6025 4.1586C40.6025 6.41119 42.5086 8.31721 44.7611 8.31721C47.0137 8.31721 48.9197 6.41119 48.9197 4.1586Z" fill="#3E54EB"/>
<path d="M28.9931 42.4525C28.9931 40.2 27.0871 38.2939 24.8345 38.2939C22.5819 38.2939 20.6759 40.2 20.6759 42.4525C20.6759 44.7051 22.5819 46.6112 24.8345 46.6112C27.0871 46.6112 28.9931 44.7051 28.9931 42.4525Z" fill="#3E54EB"/>
<path d="M28.9931 23.2192C28.9931 20.9666 27.0871 19.0605 24.8345 19.0605C22.5819 19.0605 20.6759 20.9666 20.6759 23.2192C20.6759 25.4717 22.5819 27.3778 24.8345 27.3778C27.0871 27.3778 28.9931 25.645 28.9931 23.2192Z" fill="#3E54EB"/>
<path d="M28.9931 4.1586C28.9931 1.90602 27.0871 0 24.8345 0C22.5819 0 20.6759 1.90602 20.6759 4.1586C20.6759 6.41119 22.5819 8.31721 24.8345 8.31721C27.0871 8.31721 28.9931 6.41119 28.9931 4.1586Z" fill="#3E54EB"/>
<path d="M9.23981 42.4525C9.23981 40.2 7.33379 38.2939 5.08121 38.2939C2.82863 38.2939 0.922607 40.2 0.922607 42.4525C0.922607 44.7051 2.82863 46.6112 5.08121 46.6112C7.33379 46.6112 9.23981 44.7051 9.23981 42.4525Z" fill="#3E54EB"/>
<path d="M9.23981 23.2192C9.23981 20.9666 7.33379 19.0605 5.08121 19.0605C2.82863 19.0605 0.922607 20.9666 0.922607 23.2192C0.922607 25.4717 2.82863 27.3778 5.08121 27.3778C7.33379 27.3778 9.23981 25.645 9.23981 23.2192Z" fill="#3E54EB"/>
<path d="M9.23981 4.1586C9.23981 1.90602 7.33379 0 5.08121 0C2.82863 0 0.922607 1.90602 0.922607 4.1586C0.922607 6.41119 2.82863 8.31721 5.08121 8.31721C7.33379 8.31721 9.23981 6.41119 9.23981 4.1586Z" fill="#3E54EB"/>
<path d="M80.1099 176.568C80.1099 178.82 82.0159 180.726 84.2685 180.726C86.521 180.726 88.4271 178.82 88.4271 176.568C88.4271 174.315 86.521 172.409 84.2685 172.409C82.0159 172.409 80.1099 174.142 80.1099 176.568Z" fill="#3E54EB"/>
<path d="M84.4411 161.493C86.7378 161.493 88.5997 159.631 88.5997 157.334C88.5997 155.037 86.7378 153.175 84.4411 153.175C82.1443 153.175 80.2825 155.037 80.2825 157.334C80.2825 159.631 82.1443 161.493 84.4411 161.493Z" fill="#3E54EB"/>
<path d="M88.5997 138.274C88.5997 136.021 86.6937 134.115 84.4411 134.115C82.1885 134.115 80.2825 136.021 80.2825 138.274C80.2825 140.526 82.1885 142.432 84.4411 142.432C86.6937 142.432 88.5997 140.526 88.5997 138.274Z" fill="#3E54EB"/>
<path d="M84.4411 123.199C86.7378 123.199 88.5997 121.337 88.5997 119.04C88.5997 116.743 86.7378 114.881 84.4411 114.881C82.1443 114.881 80.2825 116.743 80.2825 119.04C80.2825 121.337 82.1443 123.199 84.4411 123.199Z" fill="#3E54EB"/>
<path d="M84.4411 103.966C86.7378 103.966 88.5997 102.104 88.5997 99.807C88.5997 97.5103 86.7378 95.6484 84.4411 95.6484C82.1443 95.6484 80.2825 97.5103 80.2825 99.807C80.2825 102.104 82.1443 103.966 84.4411 103.966Z" fill="#3E54EB"/>
<path d="M88.5997 80.7465C88.5997 78.4939 86.6937 76.5879 84.4411 76.5879C82.1885 76.5879 80.2825 78.4939 80.2825 80.7465C80.2825 82.9991 82.1885 84.9051 84.4411 84.9051C86.6937 84.9051 88.5997 82.9991 88.5997 80.7465Z" fill="#3E54EB"/>
<path d="M84.4411 65.6717C86.7378 65.6717 88.5997 63.8098 88.5997 61.5131C88.5997 59.2164 86.7378 57.3545 84.4411 57.3545C82.1443 57.3545 80.2825 59.2164 80.2825 61.5131C80.2825 63.8098 82.1443 65.6717 84.4411 65.6717Z" fill="#3E54EB"/>
<path d="M68.673 176.568C68.673 174.315 66.767 172.409 64.5144 172.409C62.2619 172.409 60.3558 174.315 60.3558 176.568C60.3558 178.82 62.2619 180.726 64.5144 180.726C66.767 180.726 68.673 178.82 68.673 176.568Z" fill="#3E54EB"/>
<path d="M64.5144 161.493C66.8112 161.493 68.673 159.631 68.673 157.334C68.673 155.037 66.8112 153.175 64.5144 153.175C62.2177 153.175 60.3558 155.037 60.3558 157.334C60.3558 159.631 62.2177 161.493 64.5144 161.493Z" fill="#3E54EB"/>
<path d="M68.673 138.274C68.673 136.021 66.767 134.115 64.5144 134.115C62.2619 134.115 60.3558 136.021 60.3558 138.274C60.3558 140.526 62.2619 142.432 64.5144 142.432C66.767 142.432 68.673 140.526 68.673 138.274Z" fill="#3E54EB"/>
<path d="M64.5144 123.199C66.8112 123.199 68.673 121.337 68.673 119.04C68.673 116.743 66.8112 114.881 64.5144 114.881C62.2177 114.881 60.3558 116.743 60.3558 119.04C60.3558 121.337 62.2177 123.199 64.5144 123.199Z" fill="#3E54EB"/>
<path d="M64.5144 103.966C66.8112 103.966 68.673 102.104 68.673 99.807C68.673 97.5103 66.8112 95.6484 64.5144 95.6484C62.2177 95.6484 60.3558 97.5103 60.3558 99.807C60.3558 102.104 62.2177 103.966 64.5144 103.966Z" fill="#3E54EB"/>
<path d="M68.673 80.7465C68.673 78.4939 66.767 76.5879 64.5144 76.5879C62.2619 76.5879 60.3558 78.4939 60.3558 80.7465C60.3558 82.9991 62.2619 84.9051 64.5144 84.9051C66.767 84.9051 68.673 82.9991 68.673 80.7465Z" fill="#3E54EB"/>
<path d="M64.5144 65.6717C66.8112 65.6717 68.673 63.8098 68.673 61.5131C68.673 59.2164 66.8112 57.3545 64.5144 57.3545C62.2177 57.3545 60.3558 59.2164 60.3558 61.5131C60.3558 63.8098 62.2177 65.6717 64.5144 65.6717Z" fill="#3E54EB"/>
<path d="M48.9197 176.568C48.9197 174.315 47.0137 172.409 44.7611 172.409C42.5086 172.409 40.6025 174.315 40.6025 176.568C40.6025 178.82 42.5086 180.726 44.7611 180.726C47.0137 180.726 48.9197 178.82 48.9197 176.568Z" fill="#3E54EB"/>
<path d="M48.9197 157.334C48.9197 155.081 47.0137 153.175 44.7611 153.175C42.5086 153.175 40.6025 155.081 40.6025 157.334C40.6025 159.586 42.5086 161.493 44.7611 161.493C47.0137 161.493 48.9197 159.76 48.9197 157.334Z" fill="#3E54EB"/>
<path d="M48.9197 138.274C48.9197 136.021 47.0137 134.115 44.7611 134.115C42.5086 134.115 40.6025 136.021 40.6025 138.274C40.6025 140.526 42.5086 142.432 44.7611 142.432C47.0137 142.432 48.9197 140.526 48.9197 138.274Z" fill="#3E54EB"/>
<path d="M48.9197 119.04C48.9197 116.787 47.0137 114.881 44.7611 114.881C42.5086 114.881 40.6025 116.787 40.6025 119.04C40.6025 121.293 42.5086 123.199 44.7611 123.199C47.0137 123.199 48.9197 121.293 48.9197 119.04Z" fill="#3E54EB"/>
<path d="M48.9197 99.807C48.9197 97.5545 47.0137 95.6484 44.7611 95.6484C42.5086 95.6484 40.6025 97.5545 40.6025 99.807C40.6025 102.06 42.5086 103.966 44.7611 103.966C47.0137 104.139 48.9197 102.233 48.9197 99.807Z" fill="#3E54EB"/>
<path d="M48.9197 80.7465C48.9197 78.4939 47.0137 76.5879 44.7611 76.5879C42.5086 76.5879 40.6025 78.4939 40.6025 80.7465C40.6025 82.9991 42.5086 84.9051 44.7611 84.9051C47.0137 84.9051 48.9197 82.9991 48.9197 80.7465Z" fill="#3E54EB"/>
<path d="M48.9197 61.5131C48.9197 59.2605 47.0137 57.3545 44.7611 57.3545C42.5086 57.3545 40.6025 59.2605 40.6025 61.5131C40.6025 63.7657 42.5086 65.6717 44.7611 65.6717C47.0137 65.845 48.9197 63.939 48.9197 61.5131Z" fill="#3E54EB"/>
<path d="M28.9931 176.568C28.9931 174.315 27.0871 172.409 24.8345 172.409C22.5819 172.409 20.6759 174.315 20.6759 176.568C20.6759 178.82 22.5819 180.726 24.8345 180.726C27.0871 180.726 28.9931 178.82 28.9931 176.568Z" fill="#3E54EB"/>
<path d="M28.9931 157.334C28.9931 155.081 27.0871 153.175 24.8345 153.175C22.5819 153.175 20.6759 155.081 20.6759 157.334C20.6759 159.586 22.5819 161.493 24.8345 161.493C27.0871 161.493 28.9931 159.76 28.9931 157.334Z" fill="#3E54EB"/>
<path d="M28.9931 138.274C28.9931 136.021 27.0871 134.115 24.8345 134.115C22.5819 134.115 20.6759 136.021 20.6759 138.274C20.6759 140.526 22.5819 142.432 24.8345 142.432C27.0871 142.432 28.9931 140.526 28.9931 138.274Z" fill="#3E54EB"/>
<path d="M28.9931 119.04C28.9931 116.787 27.0871 114.881 24.8345 114.881C22.5819 114.881 20.6759 116.787 20.6759 119.04C20.6759 121.293 22.5819 123.199 24.8345 123.199C27.0871 123.199 28.9931 121.293 28.9931 119.04Z" fill="#3E54EB"/>
<path d="M28.9931 99.807C28.9931 97.5545 27.0871 95.6484 24.8345 95.6484C22.5819 95.6484 20.6759 97.5545 20.6759 99.807C20.6759 102.06 22.5819 103.966 24.8345 103.966C27.0871 104.139 28.9931 102.233 28.9931 99.807Z" fill="#3E54EB"/>
<path d="M28.9931 80.7465C28.9931 78.4939 27.0871 76.5879 24.8345 76.5879C22.5819 76.5879 20.6759 78.4939 20.6759 80.7465C20.6759 82.9991 22.5819 84.9051 24.8345 84.9051C27.0871 84.9051 28.9931 82.9991 28.9931 80.7465Z" fill="#3E54EB"/>
<path d="M28.9931 61.5131C28.9931 59.2605 27.0871 57.3545 24.8345 57.3545C22.5819 57.3545 20.6759 59.2605 20.6759 61.5131C20.6759 63.7657 22.5819 65.6717 24.8345 65.6717C27.0871 65.845 28.9931 63.939 28.9931 61.5131Z" fill="#3E54EB"/>
<path d="M9.23981 176.568C9.23981 174.315 7.33379 172.409 5.08121 172.409C2.82863 172.409 0.922607 174.315 0.922607 176.568C0.922607 178.82 2.82863 180.726 5.08121 180.726C7.33379 180.726 9.23981 178.82 9.23981 176.568Z" fill="#3E54EB"/>
<path d="M9.23981 157.334C9.23981 155.081 7.33379 153.175 5.08121 153.175C2.82863 153.175 0.922607 155.081 0.922607 157.334C0.922607 159.586 2.82863 161.493 5.08121 161.493C7.33379 161.493 9.23981 159.76 9.23981 157.334Z" fill="#3E54EB"/>
<path d="M9.23981 138.274C9.23981 136.021 7.33379 134.115 5.08121 134.115C2.82863 134.115 0.922607 136.021 0.922607 138.274C0.922607 140.526 2.82863 142.432 5.08121 142.432C7.33379 142.432 9.23981 140.526 9.23981 138.274Z" fill="#3E54EB"/>
<path d="M9.23981 119.04C9.23981 116.787 7.33379 114.881 5.08121 114.881C2.82863 114.881 0.922607 116.787 0.922607 119.04C0.922607 121.293 2.82863 123.199 5.08121 123.199C7.33379 123.199 9.23981 121.293 9.23981 119.04Z" fill="#3E54EB"/>
<path d="M9.23981 99.807C9.23981 97.5545 7.33379 95.6484 5.08121 95.6484C2.82863 95.6484 0.922607 97.5545 0.922607 99.807C0.922607 102.06 2.82863 103.966 5.08121 103.966C7.33379 103.966 9.23981 102.233 9.23981 99.807Z" fill="#3E54EB"/>
<path d="M9.23981 80.7465C9.23981 78.4939 7.33379 76.5879 5.08121 76.5879C2.82863 76.5879 0.922607 78.4939 0.922607 80.7465C0.922607 82.9991 2.82863 84.9051 5.08121 84.9051C7.33379 84.9051 9.23981 82.9991 9.23981 80.7465Z" fill="#3E54EB"/>
<path d="M9.23981 61.5131C9.23981 59.2605 7.33379 57.3545 5.08121 57.3545C2.82863 57.3545 0.922607 59.2605 0.922607 61.5131C0.922607 63.7657 2.82863 65.6717 5.08121 65.6717C7.33379 65.6717 9.23981 63.939 9.23981 61.5131Z" fill="#3E54EB"/>
</svg>
