<svg width="56" height="56" viewBox="0 0 56 56" fill="none" xmlns="http://www.w3.org/2000/svg">
<rect width="56" height="56" rx="10" fill="white"/>
<path d="M27.5 37.75C21.85 37.75 17.25 33.15 17.25 27.5C17.25 21.85 21.85 17.25 27.5 17.25C33.15 17.25 37.75 21.85 37.75 27.5C37.75 33.15 33.15 37.75 27.5 37.75ZM27.5 18.75C22.67 18.75 18.75 22.68 18.75 27.5C18.75 32.32 22.67 36.25 27.5 36.25C32.33 36.25 36.25 32.32 36.25 27.5C36.25 22.68 32.33 18.75 27.5 18.75Z" fill="#3E54EB"/>
<path d="M37.9999 38.7499C37.8099 38.7499 37.6199 38.6799 37.4699 38.5299L35.4699 36.5299C35.1799 36.2399 35.1799 35.7599 35.4699 35.4699C35.7599 35.1799 36.2399 35.1799 36.5299 35.4699L38.5299 37.4699C38.8199 37.7599 38.8199 38.2399 38.5299 38.5299C38.3799 38.6799 38.1899 38.7499 37.9999 38.7499Z" fill="#3E54EB"/>
</svg>
