<svg width="48" height="48" viewBox="0 0 48 48" fill="none" xmlns="http://www.w3.org/2000/svg">
<rect width="48" height="48" rx="24" fill="white"/>
<path d="M27.2861 16C25.1822 16 23.4767 17.7909 23.4767 20C23.4767 20.3338 23.5157 20.6581 23.589 20.9681C21.5661 20.9681 18.5191 20.5591 15.9744 18.0096C15.6361 17.6706 15.0121 17.8973 15.0356 18.3757C15.4127 26.0627 18.7048 28.3049 20.4001 28.4444C19.3054 29.5257 17.7151 30.3791 16.1149 30.7622C15.6926 30.8633 15.5882 31.3256 16.0012 31.4599C17.1462 31.8323 18.7852 31.9758 19.6673 32C25.9082 32 30.9806 26.7471 31.0935 20.2223C31.9129 19.6894 32.4377 18.5325 32.7326 17.7129C32.8044 17.5133 32.4773 17.2807 32.2815 17.3623C31.6694 17.6171 30.8923 17.6775 30.2304 17.4618C29.5318 16.5693 28.4722 16 27.2861 16Z" fill="#3E54EB"/>
</svg>
