<svg width="30" height="30" viewBox="0 0 30 30" fill="none" xmlns="http://www.w3.org/2000/svg">
<path d="M17.7711 3.30751C17.0783 2.28871 16.467 1.35142 15.8965 0.495627C15.815 0.373372 15.6927 0.251116 15.5705 0.169612C15.0814 -0.156403 14.4294 0.00660474 14.1034 0.495627C13.5736 1.35142 12.9623 2.24796 12.2288 3.30751C9.0094 8.03472 4.20068 15.1663 4.20068 19.2415C4.20068 22.2164 5.42324 24.906 7.37933 26.8621C9.33542 28.7774 12.025 30 14.9999 30C17.9748 30 20.6644 28.7774 22.6205 26.8213C24.5766 24.8652 25.7992 22.1756 25.7992 19.2007C25.7992 15.1255 20.9905 8.03472 17.7711 3.30751ZM21.1535 25.3543C19.5641 26.9436 17.4043 27.8809 14.9999 27.8809C12.5956 27.8809 10.4357 26.9028 8.8464 25.3543C7.25707 23.7649 6.31978 21.6051 6.31978 19.2007C6.31978 15.7776 10.9247 8.97202 13.9811 4.44856C14.3479 3.91878 14.6739 3.38901 14.9999 2.94074C15.3259 3.38901 15.652 3.91878 16.0187 4.44856C19.0751 9.01277 23.6801 15.7776 23.6801 19.2007C23.6801 21.6051 22.702 23.7649 21.1535 25.3543Z" fill="#0F1015"/>
<path d="M21.3164 18.4674C20.7458 18.4267 20.2568 18.8749 20.2161 19.4455C20.1753 20.342 19.8901 21.1978 19.4418 21.9313C18.9935 22.6649 18.3415 23.3169 17.5672 23.7244C17.0782 24.0097 16.8744 24.6617 17.1597 25.1507C17.4857 25.7213 18.1377 25.8843 18.6267 25.599C19.727 24.9877 20.6236 24.0912 21.2349 23.0724C21.8869 22.0536 22.2537 20.831 22.2944 19.5677C22.3352 18.9972 21.8869 18.5082 21.3164 18.4674Z" fill="#0F1015"/>
</svg>
