<?xml version="1.0" ?>
<!-- Uploaded to: SVG Repo, www.svgrepo.com, Generator: SVG Repo Mixer Tools -->
<svg fill="#000000" width="800px" height="800px" viewBox="0 0 32 32" xmlns="http://www.w3.org/2000/svg">
<title/>
<g data-name="Layer 2" id="Layer_2">
<path d="M30,18H24a1,1,0,0,0-1,1v1H9V19a1,1,0,0,0-1-1H2a1,1,0,0,0-1,1V30a1,1,0,0,0,1,1H30a1,1,0,0,0,1-1V19A1,1,0,0,0,30,18Zm-7,4v4H9V22ZM3,20H7v9H3Zm6,8H23v1H9Zm20,1H25V20h4Z"/>
<path d="M28,17a1,1,0,0,0,1-1V4a1,1,0,0,0-1-1H4.13a1,1,0,0,0-1,1V16a1,1,0,0,0,1,1ZM5.13,5H27V15H5.13Z"/>
<rect height="2" width="4" x="14" y="23"/>
</g>
</svg>