<svg width="30" height="30" viewBox="0 0 30 30" fill="none" xmlns="http://www.w3.org/2000/svg">
<mask id="path-1-outside-1_3356_17644" maskUnits="userSpaceOnUse" x="0.819336" y="0.819336" width="28" height="28" fill="black">
<rect fill="white" x="0.819336" y="0.819336" width="28" height="28"/>
<path d="M28.1812 9.31659C28.1818 9.07024 28.1335 8.82622 28.0391 8.59867C27.9447 8.37112 27.8061 8.16456 27.6314 7.99097L26.0582 6.41737L27.277 5.19862C27.5838 4.89114 27.7561 4.47449 27.7561 4.04011C27.7561 3.60572 27.5838 3.18908 27.277 2.88159C27.1318 2.69838 26.9498 2.54768 26.7427 2.43926C26.5356 2.33083 26.308 2.26709 26.0747 2.25215C25.8414 2.23722 25.6076 2.27143 25.3883 2.35256C25.1691 2.43369 24.9693 2.55995 24.802 2.72315L23.5832 3.9419L22.0092 2.36831C21.6576 2.0168 21.1807 1.81934 20.6835 1.81934C20.1864 1.81934 19.7095 2.0168 19.3579 2.36831L17.9559 3.77034C15.6562 1.61409 12.1387 5.21737 14.3606 7.46597L17.2101 10.315L10.3148 17.2103L7.46573 14.3613C5.22042 12.1413 1.61901 15.6503 3.77011 17.9557L2.36854 19.3577C2.19442 19.5318 2.0563 19.7385 1.96207 19.966C1.86784 20.1935 1.81934 20.4373 1.81934 20.6835C1.81934 20.9298 1.86784 21.1736 1.96207 21.4011C2.0563 21.6286 2.19442 21.8353 2.36854 22.0094L3.94167 23.583L2.72292 24.8017C1.19526 26.3561 3.63417 28.811 5.19792 27.2777L6.41667 26.0585L7.99073 27.6321C8.34235 27.9836 8.81917 28.181 9.31636 28.181C9.81354 28.181 10.2904 27.9836 10.642 27.6321L12.044 26.23C14.3437 28.3863 17.8612 24.7825 15.6393 22.5344L12.7898 19.6853L19.6851 12.79L22.5342 15.6391C22.782 15.88 23.0779 16.0657 23.4025 16.1842C23.7272 16.3026 24.0732 16.3511 24.4179 16.3264C24.7626 16.3017 25.0981 16.2044 25.4026 16.0409C25.707 15.8773 25.9734 15.6513 26.1843 15.3775C26.6234 14.9368 26.8737 14.3424 26.8822 13.7203C26.8907 13.0982 26.6567 12.4973 26.2298 12.0447L27.6314 10.6427C27.8061 10.469 27.9446 10.2623 28.0389 10.0347C28.1332 9.80706 28.1819 9.56298 28.1812 9.31659ZM25.4639 3.38597C26.1295 2.71003 27.2896 3.86878 26.6137 4.53534L25.395 5.75409L24.2456 4.60472L25.4639 3.38597ZM4.53558 26.6144C3.86995 27.2903 2.70979 26.1316 3.38573 25.465L4.60448 24.2463L5.75386 25.3957L4.53558 26.6144ZM9.97917 26.9692C9.80054 27.1396 9.56318 27.2346 9.31636 27.2346C9.06953 27.2346 8.83218 27.1396 8.65354 26.9692L3.03136 21.3466C2.8566 21.1702 2.75856 20.9319 2.75856 20.6835C2.75856 20.4352 2.8566 20.1969 3.03136 20.0205L4.42823 18.6236L11.3765 25.5719L9.97917 26.9692ZM14.976 25.2602C14.8298 25.4713 14.6342 25.6435 14.4063 25.7618C14.1784 25.8801 13.925 25.9409 13.6682 25.939C13.4114 25.9371 13.1589 25.8724 12.9328 25.7507C12.7067 25.6289 12.5137 25.4538 12.3707 25.2405L4.47839 17.3486C4.32538 17.1868 4.20952 16.9936 4.13889 16.7824C4.06827 16.5712 4.04458 16.3471 4.06949 16.1259C4.09439 15.9046 4.16729 15.6914 4.28309 15.5012C4.39889 15.3109 4.5548 15.1483 4.73995 15.0246C5.01368 14.7515 5.38455 14.5981 5.7712 14.5981C6.15785 14.5981 6.52872 14.7515 6.80245 15.0246L14.9765 23.1972C15.2495 23.471 15.4028 23.8419 15.4028 24.2285C15.4028 24.6151 15.2495 24.9859 14.9765 25.2597L14.976 25.2602ZM19.0223 12.1277L12.127 19.0221L10.9776 17.8722L17.8729 10.9769L19.0223 12.1277ZM25.5215 14.7147C25.3978 14.8999 25.2351 15.0559 25.0449 15.1718C24.8546 15.2876 24.6414 15.3606 24.42 15.3855C24.1987 15.4104 23.9745 15.3867 23.7633 15.316C23.552 15.2453 23.3588 15.1294 23.197 14.9763L15.0239 6.80315C14.7508 6.52942 14.5974 6.15856 14.5974 5.7719C14.5974 5.38525 14.7508 5.01439 15.0239 4.74065C15.1748 4.53702 15.3691 4.36953 15.5928 4.25035C15.8165 4.13116 16.0639 4.06327 16.3171 4.05159C16.5748 4.06464 16.8262 4.13493 17.0533 4.25737C17.2803 4.37981 17.4772 4.55131 17.6296 4.7594L25.2407 12.371L25.522 12.6522C25.7951 12.9259 25.9484 13.2968 25.9484 13.6835C25.9484 14.0701 25.7946 14.441 25.5215 14.7147ZM26.9685 9.97987L25.5717 11.3767L18.6234 4.42847L20.0203 3.03159C20.1989 2.86098 20.4365 2.76579 20.6835 2.76579C20.9306 2.76579 21.1681 2.86098 21.3468 3.03159L26.9681 8.65331C27.1428 8.82974 27.2409 9.06803 27.2409 9.31636C27.2409 9.56469 27.1428 9.80297 26.9681 9.9794L26.9685 9.97987Z"/>
</mask>
<path d="M28.1812 9.31659C28.1818 9.07024 28.1335 8.82622 28.0391 8.59867C27.9447 8.37112 27.8061 8.16456 27.6314 7.99097L26.0582 6.41737L27.277 5.19862C27.5838 4.89114 27.7561 4.47449 27.7561 4.04011C27.7561 3.60572 27.5838 3.18908 27.277 2.88159C27.1318 2.69838 26.9498 2.54768 26.7427 2.43926C26.5356 2.33083 26.308 2.26709 26.0747 2.25215C25.8414 2.23722 25.6076 2.27143 25.3883 2.35256C25.1691 2.43369 24.9693 2.55995 24.802 2.72315L23.5832 3.9419L22.0092 2.36831C21.6576 2.0168 21.1807 1.81934 20.6835 1.81934C20.1864 1.81934 19.7095 2.0168 19.3579 2.36831L17.9559 3.77034C15.6562 1.61409 12.1387 5.21737 14.3606 7.46597L17.2101 10.315L10.3148 17.2103L7.46573 14.3613C5.22042 12.1413 1.61901 15.6503 3.77011 17.9557L2.36854 19.3577C2.19442 19.5318 2.0563 19.7385 1.96207 19.966C1.86784 20.1935 1.81934 20.4373 1.81934 20.6835C1.81934 20.9298 1.86784 21.1736 1.96207 21.4011C2.0563 21.6286 2.19442 21.8353 2.36854 22.0094L3.94167 23.583L2.72292 24.8017C1.19526 26.3561 3.63417 28.811 5.19792 27.2777L6.41667 26.0585L7.99073 27.6321C8.34235 27.9836 8.81917 28.181 9.31636 28.181C9.81354 28.181 10.2904 27.9836 10.642 27.6321L12.044 26.23C14.3437 28.3863 17.8612 24.7825 15.6393 22.5344L12.7898 19.6853L19.6851 12.79L22.5342 15.6391C22.782 15.88 23.0779 16.0657 23.4025 16.1842C23.7272 16.3026 24.0732 16.3511 24.4179 16.3264C24.7626 16.3017 25.0981 16.2044 25.4026 16.0409C25.707 15.8773 25.9734 15.6513 26.1843 15.3775C26.6234 14.9368 26.8737 14.3424 26.8822 13.7203C26.8907 13.0982 26.6567 12.4973 26.2298 12.0447L27.6314 10.6427C27.8061 10.469 27.9446 10.2623 28.0389 10.0347C28.1332 9.80706 28.1819 9.56298 28.1812 9.31659ZM25.4639 3.38597C26.1295 2.71003 27.2896 3.86878 26.6137 4.53534L25.395 5.75409L24.2456 4.60472L25.4639 3.38597ZM4.53558 26.6144C3.86995 27.2903 2.70979 26.1316 3.38573 25.465L4.60448 24.2463L5.75386 25.3957L4.53558 26.6144ZM9.97917 26.9692C9.80054 27.1396 9.56318 27.2346 9.31636 27.2346C9.06953 27.2346 8.83218 27.1396 8.65354 26.9692L3.03136 21.3466C2.8566 21.1702 2.75856 20.9319 2.75856 20.6835C2.75856 20.4352 2.8566 20.1969 3.03136 20.0205L4.42823 18.6236L11.3765 25.5719L9.97917 26.9692ZM14.976 25.2602C14.8298 25.4713 14.6342 25.6435 14.4063 25.7618C14.1784 25.8801 13.925 25.9409 13.6682 25.939C13.4114 25.9371 13.1589 25.8724 12.9328 25.7507C12.7067 25.6289 12.5137 25.4538 12.3707 25.2405L4.47839 17.3486C4.32538 17.1868 4.20952 16.9936 4.13889 16.7824C4.06827 16.5712 4.04458 16.3471 4.06949 16.1259C4.09439 15.9046 4.16729 15.6914 4.28309 15.5012C4.39889 15.3109 4.5548 15.1483 4.73995 15.0246C5.01368 14.7515 5.38455 14.5981 5.7712 14.5981C6.15785 14.5981 6.52872 14.7515 6.80245 15.0246L14.9765 23.1972C15.2495 23.471 15.4028 23.8419 15.4028 24.2285C15.4028 24.6151 15.2495 24.9859 14.9765 25.2597L14.976 25.2602ZM19.0223 12.1277L12.127 19.0221L10.9776 17.8722L17.8729 10.9769L19.0223 12.1277ZM25.5215 14.7147C25.3978 14.8999 25.2351 15.0559 25.0449 15.1718C24.8546 15.2876 24.6414 15.3606 24.42 15.3855C24.1987 15.4104 23.9745 15.3867 23.7633 15.316C23.552 15.2453 23.3588 15.1294 23.197 14.9763L15.0239 6.80315C14.7508 6.52942 14.5974 6.15856 14.5974 5.7719C14.5974 5.38525 14.7508 5.01439 15.0239 4.74065C15.1748 4.53702 15.3691 4.36953 15.5928 4.25035C15.8165 4.13116 16.0639 4.06327 16.3171 4.05159C16.5748 4.06464 16.8262 4.13493 17.0533 4.25737C17.2803 4.37981 17.4772 4.55131 17.6296 4.7594L25.2407 12.371L25.522 12.6522C25.7951 12.9259 25.9484 13.2968 25.9484 13.6835C25.9484 14.0701 25.7946 14.441 25.5215 14.7147ZM26.9685 9.97987L25.5717 11.3767L18.6234 4.42847L20.0203 3.03159C20.1989 2.86098 20.4365 2.76579 20.6835 2.76579C20.9306 2.76579 21.1681 2.86098 21.3468 3.03159L26.9681 8.65331C27.1428 8.82974 27.2409 9.06803 27.2409 9.31636C27.2409 9.56469 27.1428 9.80297 26.9681 9.9794L26.9685 9.97987Z" fill="#0F1015"/>
<path d="M28.1812 9.31659C28.1818 9.07024 28.1335 8.82622 28.0391 8.59867C27.9447 8.37112 27.8061 8.16456 27.6314 7.99097L26.0582 6.41737L27.277 5.19862C27.5838 4.89114 27.7561 4.47449 27.7561 4.04011C27.7561 3.60572 27.5838 3.18908 27.277 2.88159C27.1318 2.69838 26.9498 2.54768 26.7427 2.43926C26.5356 2.33083 26.308 2.26709 26.0747 2.25215C25.8414 2.23722 25.6076 2.27143 25.3883 2.35256C25.1691 2.43369 24.9693 2.55995 24.802 2.72315L23.5832 3.9419L22.0092 2.36831C21.6576 2.0168 21.1807 1.81934 20.6835 1.81934C20.1864 1.81934 19.7095 2.0168 19.3579 2.36831L17.9559 3.77034C15.6562 1.61409 12.1387 5.21737 14.3606 7.46597L17.2101 10.315L10.3148 17.2103L7.46573 14.3613C5.22042 12.1413 1.61901 15.6503 3.77011 17.9557L2.36854 19.3577C2.19442 19.5318 2.0563 19.7385 1.96207 19.966C1.86784 20.1935 1.81934 20.4373 1.81934 20.6835C1.81934 20.9298 1.86784 21.1736 1.96207 21.4011C2.0563 21.6286 2.19442 21.8353 2.36854 22.0094L3.94167 23.583L2.72292 24.8017C1.19526 26.3561 3.63417 28.811 5.19792 27.2777L6.41667 26.0585L7.99073 27.6321C8.34235 27.9836 8.81917 28.181 9.31636 28.181C9.81354 28.181 10.2904 27.9836 10.642 27.6321L12.044 26.23C14.3437 28.3863 17.8612 24.7825 15.6393 22.5344L12.7898 19.6853L19.6851 12.79L22.5342 15.6391C22.782 15.88 23.0779 16.0657 23.4025 16.1842C23.7272 16.3026 24.0732 16.3511 24.4179 16.3264C24.7626 16.3017 25.0981 16.2044 25.4026 16.0409C25.707 15.8773 25.9734 15.6513 26.1843 15.3775C26.6234 14.9368 26.8737 14.3424 26.8822 13.7203C26.8907 13.0982 26.6567 12.4973 26.2298 12.0447L27.6314 10.6427C27.8061 10.469 27.9446 10.2623 28.0389 10.0347C28.1332 9.80706 28.1819 9.56298 28.1812 9.31659ZM25.4639 3.38597C26.1295 2.71003 27.2896 3.86878 26.6137 4.53534L25.395 5.75409L24.2456 4.60472L25.4639 3.38597ZM4.53558 26.6144C3.86995 27.2903 2.70979 26.1316 3.38573 25.465L4.60448 24.2463L5.75386 25.3957L4.53558 26.6144ZM9.97917 26.9692C9.80054 27.1396 9.56318 27.2346 9.31636 27.2346C9.06953 27.2346 8.83218 27.1396 8.65354 26.9692L3.03136 21.3466C2.8566 21.1702 2.75856 20.9319 2.75856 20.6835C2.75856 20.4352 2.8566 20.1969 3.03136 20.0205L4.42823 18.6236L11.3765 25.5719L9.97917 26.9692ZM14.976 25.2602C14.8298 25.4713 14.6342 25.6435 14.4063 25.7618C14.1784 25.8801 13.925 25.9409 13.6682 25.939C13.4114 25.9371 13.1589 25.8724 12.9328 25.7507C12.7067 25.6289 12.5137 25.4538 12.3707 25.2405L4.47839 17.3486C4.32538 17.1868 4.20952 16.9936 4.13889 16.7824C4.06827 16.5712 4.04458 16.3471 4.06949 16.1259C4.09439 15.9046 4.16729 15.6914 4.28309 15.5012C4.39889 15.3109 4.5548 15.1483 4.73995 15.0246C5.01368 14.7515 5.38455 14.5981 5.7712 14.5981C6.15785 14.5981 6.52872 14.7515 6.80245 15.0246L14.9765 23.1972C15.2495 23.471 15.4028 23.8419 15.4028 24.2285C15.4028 24.6151 15.2495 24.9859 14.9765 25.2597L14.976 25.2602ZM19.0223 12.1277L12.127 19.0221L10.9776 17.8722L17.8729 10.9769L19.0223 12.1277ZM25.5215 14.7147C25.3978 14.8999 25.2351 15.0559 25.0449 15.1718C24.8546 15.2876 24.6414 15.3606 24.42 15.3855C24.1987 15.4104 23.9745 15.3867 23.7633 15.316C23.552 15.2453 23.3588 15.1294 23.197 14.9763L15.0239 6.80315C14.7508 6.52942 14.5974 6.15856 14.5974 5.7719C14.5974 5.38525 14.7508 5.01439 15.0239 4.74065C15.1748 4.53702 15.3691 4.36953 15.5928 4.25035C15.8165 4.13116 16.0639 4.06327 16.3171 4.05159C16.5748 4.06464 16.8262 4.13493 17.0533 4.25737C17.2803 4.37981 17.4772 4.55131 17.6296 4.7594L25.2407 12.371L25.522 12.6522C25.7951 12.9259 25.9484 13.2968 25.9484 13.6835C25.9484 14.0701 25.7946 14.441 25.5215 14.7147ZM26.9685 9.97987L25.5717 11.3767L18.6234 4.42847L20.0203 3.03159C20.1989 2.86098 20.4365 2.76579 20.6835 2.76579C20.9306 2.76579 21.1681 2.86098 21.3468 3.03159L26.9681 8.65331C27.1428 8.82974 27.2409 9.06803 27.2409 9.31636C27.2409 9.56469 27.1428 9.80297 26.9681 9.9794L26.9685 9.97987Z" stroke="#0F1015" stroke-width="0.6" mask="url(#path-1-outside-1_3356_17644)"/>
</svg>
