<svg width="30" height="30" viewBox="0 0 30 30" fill="none" xmlns="http://www.w3.org/2000/svg">
<path d="M27.5 15C27.5 11.6454 26.1785 8.59939 24.0278 6.35421M27.5 15C27.5 18.3546 26.1785 21.4006 24.0278 23.6458M27.5 15H2.5M15 27.5C18.5489 27.5 21.7524 26.021 24.0278 23.6458M15 27.5C11.4511 27.5 8.24756 26.021 5.97222 23.6458M15 27.5V2.5M2.5 15C2.5 11.6454 3.82146 8.59939 5.97222 6.35421M2.5 15C2.5 18.3546 3.82146 21.4006 5.97222 23.6458M15 2.5C18.5489 2.5 21.7524 3.97898 24.0278 6.35421M15 2.5C11.4511 2.5 8.24756 3.97898 5.97222 6.35421M24.0278 6.35421C21.877 8.59939 20.5556 11.6454 20.5556 15C20.5556 18.3546 21.877 21.4006 24.0278 23.6458M5.97222 6.35421C8.12299 8.59939 9.44444 11.6454 9.44444 15C9.44444 18.3546 8.12299 21.4006 5.97222 23.6458" stroke="#0F1015" stroke-width="1.5" stroke-linecap="round"/>
</svg>
