<svg width="30" height="30" viewBox="0 0 30 30" fill="none" xmlns="http://www.w3.org/2000/svg">
<path fill-rule="evenodd" clip-rule="evenodd" d="M25.7376 4.59895L25.7376 4.60322L25.7376 25.397C25.7376 26.7606 24.6231 27.8751 23.2595 27.8751H6.7501C5.38645 27.8751 4.27197 26.7606 4.27197 25.397V4.59385C4.27197 3.23021 5.38645 2.11572 6.7501 2.11572H23.2501C24.627 2.11572 25.7259 3.23317 25.7376 4.59895ZM15.5251 26.447H18.9751C19.0066 26.447 19.0372 26.4429 19.0662 26.4352C19.0371 26.4429 19.0065 26.447 18.975 26.447H15.525V13.0501H15.5251V26.447ZM16.0251 25.947H18.8313V13.5501H16.0251V25.947ZM11.0345 26.4376H14.5875V26.4376H11.0344C10.8375 26.447 10.6781 26.2876 10.6781 26.0908V13.4064C10.6781 13.2402 10.7916 13.1008 10.9454 13.0613C10.7917 13.1008 10.6782 13.2402 10.6782 13.4063V26.0907C10.6782 26.2876 10.8376 26.447 11.0345 26.4376ZM14.0876 13.5501H11.1782V25.9376H14.0876V13.5501ZM25.2376 4.60322V25.397C25.2376 26.2451 24.6959 26.9734 23.9416 27.253C24.6958 26.9734 25.2375 26.2451 25.2375 25.397V4.60325C25.2281 3.50638 24.3469 2.61575 23.25 2.61575H6.74998C6.58539 2.61575 6.42531 2.63615 6.27214 2.67455C6.42534 2.63613 6.58546 2.61572 6.7501 2.61572H23.2501C24.347 2.61572 25.2282 3.50635 25.2376 4.60322ZM23.2501 25.9376C23.5458 25.9376 23.7907 25.6927 23.7907 25.397V4.60322C23.7907 4.30749 23.5458 4.0626 23.2501 4.0626H6.7501C6.45437 4.0626 6.20947 4.30749 6.20947 4.60322V25.4063C6.20947 25.7021 6.45436 25.947 6.7501 25.947H9.23135V13.4063C9.23135 12.4177 10.0365 11.6126 11.0251 11.6126H18.9657C19.9544 11.6126 20.7595 12.4177 20.7595 13.4063V25.9376H23.2501ZM23.2501 26.4376C23.2948 26.4376 23.3388 26.4347 23.3821 26.4292C23.3388 26.4347 23.2947 26.4376 23.25 26.4376H20.2031C20.2312 26.3251 20.2594 26.2033 20.2594 26.0814V13.4064C20.2594 12.6939 19.6781 12.1126 18.9656 12.1126H11.025C10.9441 12.1126 10.865 12.1201 10.7881 12.1344C10.865 12.1201 10.9442 12.1126 11.0251 12.1126H18.9657C19.6782 12.1126 20.2595 12.6938 20.2595 13.4063V26.0813C20.2595 26.2032 20.2313 26.3251 20.2032 26.4376H23.2501ZM5.70947 4.60322C5.70947 4.12117 6.04254 3.71239 6.48968 3.59587C6.04248 3.71235 5.70935 4.12116 5.70935 4.60325V25.4064C5.70935 25.9783 6.1781 26.447 6.74998 26.447H9.78748L9.78746 26.447H6.7501C6.17822 26.447 5.70947 25.9782 5.70947 25.4063V4.60322ZM13.2561 10.6783H11.5217L12.3842 9.17825L13.2561 10.6783ZM12.3936 10.1158L12.3374 10.2095H12.4499L12.3936 10.1158ZM18.2436 9.55325L17.3717 11.0533L16.4999 9.55325H18.2436ZM17.3155 10.022L17.3717 10.1158L17.428 10.022H17.3155Z" fill="#0F1015"/>
</svg>
